<?xml version="1.0" encoding="UTF-8"?>
<svg width="24px" height="15px" viewBox="0 0 24 15" version="1.1" xmlns="http://www.w3.org/2000/svg" xmlns:xlink="http://www.w3.org/1999/xlink">
    <!-- Generator: sketchtool 60.1 (101010) - https://sketch.com -->
    <title>128F38DC-6327-407F-94AE-5261D03B0262</title>
    <desc>Created with sketchtool.</desc>
    <g id="Final" stroke="none" stroke-width="1" fill="none" fill-rule="evenodd">
        <g id="Home-Page-Signed-Out-" transform="translate(-8.000000, -13.000000)" fill="#052F5F">
            <g id="Header">
                <g id="Hamburger">
                    <g id="Icon" transform="translate(8.000000, 13.000000)">
                        <path d="M23.5,1 L0.5,1 C0.224,1 0,0.776 0,0.5 C0,0.224 0.224,0 0.5,0 L23.5,0 C23.776,0 24,0.224 24,0.5 C24,0.776 23.776,1 23.5,1 Z" id="Path"></path>
                        <path d="M15.6666667,8 L0.333333333,8 C0.149333333,8 0,7.776 0,7.5 C0,7.224 0.149333333,7 0.333333333,7 L15.6666667,7 C15.8506667,7 16,7.224 16,7.5 C16,7.776 15.8506667,8 15.6666667,8 Z" id="Path"></path>
                        <path d="M19.5833333,15 L0.416666667,15 C0.186666667,15 0,14.776 0,14.5 C0,14.224 0.186666667,14 0.416666667,14 L19.5833333,14 C19.8133333,14 20,14.224 20,14.5 C20,14.776 19.8133333,15 19.5833333,15 Z" id="Path"></path>
                    </g>
                </g>
            </g>
        </g>
    </g>
</svg>