<?xml version="1.0" encoding="UTF-8"?>
<svg width="24px" height="24px" viewBox="0 0 24 24" version="1.1" xmlns="http://www.w3.org/2000/svg" xmlns:xlink="http://www.w3.org/1999/xlink">
    <!-- Generator: sketchtool 60 (101010) - https://sketch.com -->
    <title>F4D257AA-BCFE-4454-98BB-50567688B35B</title>
    <desc>Created with sketchtool.</desc>
    <g id="Page-1" stroke="none" stroke-width="1" fill="none" fill-rule="evenodd">
        <g id="Desktop-x-1680---Signed-Out" transform="translate(-1210.000000, -4146.000000)" fill-rule="nonzero">
            <g id="Footer-Links-Collapsed" transform="translate(0.000000, 3815.000000)">
                <g id="Policy-Links" transform="translate(0.000000, 323.000000)">
                    <g id="Socail-Icons" transform="translate(1210.000000, 8.000000)">
                        <g id="facebook-(1)">
                            <path d="M11.7549368,0 C18.247393,0 23.5099544,5.26030586 23.5099544,11.7483579 C23.5099544,18.2371358 18.247393,23.4966351 11.7549368,23.4966351 C5.2624807,23.4966351 0,18.2370551 0,11.7483579 C0,5.26030586 5.2625614,0 11.7549368,0 Z" id="Path" fill="#0E0F20"></path>
                            <path d="M13.1861825,8.08794509 L14.7011158,8.08794509 L14.7011158,5.85135327 L12.9202702,5.85135327 L12.9202702,5.85941888 C10.7624667,5.93580014 10.3202211,7.14806033 10.2812421,8.42129648 L10.2768035,8.42129648 L10.2768035,9.53814057 L8.80746667,9.53814057 L8.80746667,11.7284358 L10.2768035,11.7284358 L10.2768035,17.5996305 L12.4911789,17.5996305 L12.4911789,11.7284358 L14.3051123,11.7284358 L14.6555193,9.53814057 L12.4919053,9.53814057 L12.4919053,8.8633722 C12.4919053,8.43307226 12.7783965,8.08794509 13.1861825,8.08794509 Z" id="Path" fill="#8a5817"></path>
                        </g>
                    </g>
                </g>
            </g>
        </g>
    </g>
</svg>