<?xml version="1.0" encoding="UTF-8"?>
<svg width="24px" height="24px" viewBox="0 0 24 24" version="1.1" xmlns="http://www.w3.org/2000/svg" xmlns:xlink="http://www.w3.org/1999/xlink">
    <!-- Generator: sketchtool 60 (101010) - https://sketch.com -->
    <title>9F56900D-3EE2-4FED-9AC5-F39871ACA7A6</title>
    <desc>Created with sketchtool.</desc>
    <g id="Page-1" stroke="none" stroke-width="1" fill="none" fill-rule="evenodd">
        <g id="Desktop-x-1680---Signed-Out" transform="translate(-1386.000000, -4146.000000)" fill-rule="nonzero">
            <g id="Footer-Links-Collapsed" transform="translate(0.000000, 3815.000000)">
                <g id="Policy-Links" transform="translate(0.000000, 323.000000)">
                    <g id="Socail-Icons" transform="translate(1210.000000, 8.000000)">
                        <g id="instagram" transform="translate(176.000000, 0.000000)">
                            <path d="M11.7549368,0 C18.246586,0 23.5099544,5.26030586 23.5099544,11.7483579 C23.5099544,18.2364099 18.2466667,23.4966351 11.7550175,23.4966351 C5.26336842,23.4966351 0,18.2363292 0,11.7483579 C0,5.26038652 5.2625614,0 11.7549368,0 Z" id="Path" fill="#0E0F20"></path>
                            <path d="M15.8118947,5.13843459 L7.69733333,5.13843459 C6.28747368,5.13843459 5.14134737,6.28463749 5.14134737,7.69297249 L5.14134737,15.8037432 C5.14134737,17.2128041 6.2882,18.3582811 7.69733333,18.3582811 L15.8127018,18.3582811 C17.2225614,18.3582811 18.3686877,17.2120782 18.3686877,15.8037432 L18.3686877,7.69297249 C18.3686877,6.28463749 17.2217544,5.13843459 15.8118947,5.13843459 Z M16.6171368,6.61653707 L16.906614,6.61581116 L16.906614,8.80981659 L14.6952246,8.81715629 L14.6878807,6.62315086 C14.6878807,6.62315086 16.6171368,6.61653707 16.6171368,6.61653707 Z M11.7550175,9.53668877 C13.5895298,9.53668877 13.9678596,11.2578079 13.9678596,11.7490031 C13.9678596,12.9671512 12.9745825,13.9598657 11.7550175,13.9598657 C10.5347263,13.9598657 9.54217415,12.9671512 9.54217415,11.7490031 C9.54136842,11.2578079 9.92050526,9.53668877 11.7550175,9.53668877 Z M16.9191228,15.643641 C16.9191228,16.3419609 16.3512246,16.9102634 15.6510561,16.9102634 L7.8339614,16.9102634 C7.1345193,16.9102634 6.56589474,16.3426869 6.56589474,15.643641 L6.56589474,10.2768692 L8.40258596,10.2768692 C8.23214386,10.6961192 8.13586667,11.2688577 8.13586667,11.7490838 C8.13586667,13.741933 9.75805263,15.3639259 11.7527579,15.3639259 C13.7474632,15.3639259 15.3688421,13.741933 15.3688421,11.7490838 C15.3688421,11.2688577 15.2725649,10.6961192 15.1028491,10.2768692 L16.9175088,10.2768692 L16.9175088,15.643641 L16.9191228,15.643641 Z" id="Shape" fill="#8a5817"></path>
                        </g>
                    </g>
                </g>
            </g>
        </g>
    </g>
</svg>