<?xml version="1.0" encoding="UTF-8"?>
<svg width="24px" height="24px" viewBox="0 0 24 24" version="1.1" xmlns="http://www.w3.org/2000/svg" xmlns:xlink="http://www.w3.org/1999/xlink">
    <!-- Generator: sketchtool 60 (101010) - https://sketch.com -->
    <title>186D8488-CF5C-4A42-A8C8-926BC9B8A5C5</title>
    <desc>Created with sketchtool.</desc>
    <g id="Page-1" stroke="none" stroke-width="1" fill="none" fill-rule="evenodd">
        <g id="Desktop-x-1680---Signed-Out" transform="translate(-1254.000000, -4146.000000)" fill-rule="nonzero">
            <g id="Footer-Links-Collapsed" transform="translate(0.000000, 3815.000000)">
                <g id="Policy-Links" transform="translate(0.000000, 323.000000)">
                    <g id="Socail-Icons" transform="translate(1210.000000, 8.000000)">
                        <g id="linkedin" transform="translate(44.000000, 0.000000)">
                            <path d="M11.7549368,0 C18.247393,0 23.5099544,5.26030586 23.5099544,11.7483579 C23.5099544,18.2364099 18.247393,23.4966351 11.7549368,23.4966351 C5.2624807,23.4966351 0,18.2363292 0,11.7483579 C0,5.26038652 5.2625614,0 11.7549368,0 Z" id="Path" fill="#0E0F20"></path>
                            <path d="M6.6239193,16.142176 L8.82505965,16.142176 L8.82505965,8.80973593 L6.6239193,8.80973593 L6.6239193,16.142176 Z M15.199207,8.55575008 C14.1309579,8.55575008 13.1751263,8.94564135 12.4970702,9.80624123 L12.4970702,8.78561978 L10.2878596,8.78561978 L10.2878596,16.1422566 L12.4970702,16.1422566 L12.4970702,12.1639784 C12.4970702,11.3232199 13.2677719,10.5030287 14.2331263,10.5030287 C15.1984807,10.5030287 15.4365509,11.3232199 15.4365509,12.1434111 L15.4365509,16.1415307 L17.6376912,16.1415307 L17.6376912,11.9796794 C17.6376105,9.08880581 16.2681825,8.55575008 15.199207,8.55575008 Z M7.7142,8.07697587 C8.32252982,8.07697587 8.81626316,7.58352225 8.81626316,6.97553707 C8.81626316,6.36755189 8.32252982,5.87417893 7.7142,5.87417893 C7.10587018,5.87417893 6.61213684,6.36763255 6.61213684,6.97561773 C6.61213684,7.58360291 7.10587018,8.07697587 7.7142,8.07697587 Z" id="Shape" fill="#8a5817"></path>
                        </g>
                    </g>
                </g>
            </g>
        </g>
    </g>
</svg>