<?xml version="1.0" standalone="no"?>
<!DOCTYPE svg PUBLIC "-//W3C//DTD SVG 20010904//EN"
 "http://www.w3.org/TR/2001/REC-SVG-20010904/DTD/svg10.dtd">
<svg version="1.0" xmlns="http://www.w3.org/2000/svg"
 width="1280.000000pt" height="1280.000000pt" viewBox="0 0 1280.000000 1280.000000"
 preserveAspectRatio="xMidYMid meet">
<metadata>
Created by potrace 1.15, written by Peter Selinger 2001-2017
</metadata>
<g transform="translate(0.000000,1280.000000) scale(0.100000,-0.100000)"
fill="#000000" stroke="none">
<path d="M6295 11603 c-194 -43 -335 -113 -463 -228 -112 -101 -220 -276 -264
-431 -30 -107 -33 -370 -5 -479 42 -159 162 -357 283 -464 86 -76 194 -142
229 -139 l30 3 3 90 3 91 -64 51 c-106 85 -173 179 -222 315 -36 98 -45 260
-21 370 42 187 169 359 337 455 97 55 178 76 310 81 107 4 137 1 204 -17 126
-35 208 -84 305 -181 138 -137 195 -276 194 -475 -1 -130 -29 -239 -91 -344
-38 -65 -127 -162 -196 -214 l-37 -28 0 -87 c0 -132 22 -141 146 -61 183 120
321 310 384 530 28 95 37 280 21 385 -46 280 -218 526 -471 669 -149 85 -273
116 -463 114 -73 -1 -141 -3 -152 -6z" fill="#8a5817"/>
<path d="M6062 10990 c-18 -4 -42 -16 -54 -26 -45 -40 -48 -66 -48 -376 0
-266 2 -297 19 -328 24 -47 73 -78 132 -86 l49 -7 0 -228 c0 -226 0 -229 23
-243 18 -11 70 -13 307 -7 l285 6 3 233 c2 174 5 234 15 237 6 2 34 6 60 10
36 5 59 16 85 40 l37 33 3 319 c3 318 3 319 -20 353 -13 19 -39 43 -58 54 -34
20 -51 21 -420 23 -212 1 -400 -2 -418 -7z" fill="#8a5817"/>
<path d="M9176 10090 c-15 -5 -37 -17 -48 -27 -20 -18 -255 -350 -277 -392 -9
-15 -12 -52 -9 -105 3 -71 7 -87 30 -118 l27 -35 -90 -128 c-74 -106 -89 -135
-89 -166 0 -20 3 -45 6 -54 4 -9 61 -53 128 -97 66 -45 156 -108 199 -140 67
-49 85 -58 121 -58 51 0 54 3 161 158 l78 112 99 0 c65 0 108 5 126 14 33 17
280 364 300 421 19 53 11 154 -16 196 -24 38 -541 404 -592 419 -41 12 -114
12 -154 0z" fill="#8a5817"/>
<path d="M3600 10047 c-19 -7 -155 -98 -302 -201 -194 -137 -269 -195 -278
-216 -7 -18 -11 -62 -9 -112 l4 -83 139 -199 c83 -118 152 -206 170 -217 25
-15 51 -19 131 -19 l100 -1 70 -101 c109 -159 119 -168 172 -168 42 0 56 8
177 98 72 55 154 114 181 132 66 43 75 56 75 106 0 44 -8 58 -133 236 -38 54
-40 59 -24 76 42 46 59 145 38 220 -15 50 -275 414 -312 436 -41 24 -151 31
-199 13z" fill="#8a5817"/>
<path d="M6300 9614 c-775 -35 -1549 -299 -2197 -751 -225 -156 -486 -382
-649 -561 -49 -53 -99 -108 -112 -122 -13 -14 -56 -65 -96 -115 -495 -611
-806 -1345 -900 -2120 -23 -187 -27 -281 -27 -540 1 -372 34 -638 126 -1006
110 -438 313 -895 568 -1279 223 -335 514 -659 817 -911 155 -128 211 -170
372 -277 436 -288 898 -485 1398 -597 319 -71 466 -87 850 -92 287 -4 348 -2
515 16 1204 136 2262 759 2966 1747 211 297 415 692 534 1034 351 1011 301
2131 -138 3099 -217 480 -480 856 -866 1242 -233 232 -399 369 -646 534 -677
449 -1419 682 -2225 698 -118 2 -249 3 -290 1z m567 -639 c827 -83 1578 -439
2168 -1030 668 -667 1035 -1555 1035 -2501 0 -443 -64 -818 -205 -1209 -144
-397 -318 -707 -587 -1048 -106 -133 -403 -430 -543 -541 -309 -246 -641 -434
-1005 -568 -823 -303 -1736 -291 -2555 34 -1113 442 -1938 1437 -2169 2618
-50 256 -60 375 -60 690 0 227 4 326 18 430 90 673 322 1232 736 1773 110 143
429 467 570 579 577 458 1236 720 1965 781 120 10 498 5 632 -8z" fill="#8a5817"/>
<path d="M6265 7939 c-168 -15 -365 -51 -495 -91 l-75 -24 -3 -54 -2 -55 105
-150 c58 -82 114 -156 123 -163 21 -16 79 -12 212 17 684 146 1446 -124 1911
-677 533 -634 636 -1461 272 -2187 -57 -113 -61 -118 -93 -102 -82 41 -156 67
-196 67 l-44 0 0 -137 c0 -76 5 -230 10 -343 18 -377 17 -375 129 -368 63 4
83 13 411 182 190 98 351 185 358 194 13 17 16 70 6 97 -4 9 -40 32 -80 50
-41 19 -74 36 -74 38 0 2 23 53 51 113 64 134 150 394 178 533 69 342 69 753
2 1087 -138 678 -567 1277 -1173 1635 -451 268 -983 385 -1533 338z" fill="#8a5817"/>
<path d="M5010 7405 c-135 -36 -310 -81 -390 -102 -80 -20 -148 -41 -152 -47
-13 -19 -9 -76 8 -101 8 -13 40 -40 69 -61 33 -22 52 -41 47 -48 -4 -6 -39
-54 -78 -106 -241 -324 -385 -668 -456 -1095 -19 -112 -22 -169 -22 -410 0
-260 2 -291 27 -436 64 -368 185 -675 382 -969 116 -174 192 -265 343 -412
363 -354 796 -575 1302 -665 195 -35 574 -44 780 -19 373 46 727 170 1033 363
35 22 37 26 37 76 0 51 -3 56 -109 198 -60 80 -116 149 -126 152 -45 18 -88 6
-193 -53 -207 -115 -413 -190 -652 -237 -118 -23 -160 -27 -330 -27 -171 0
-212 4 -334 28 -909 177 -1577 903 -1677 1821 -28 262 24 610 132 881 45 115
141 299 205 395 64 95 152 209 163 209 3 0 42 -25 86 -55 65 -45 86 -55 121
-55 23 0 46 6 52 13 6 7 20 67 32 134 11 67 22 128 25 135 15 43 65 379 65
441 0 96 -10 110 -86 114 -47 2 -109 -11 -304 -62z" fill="#8a5817"/>
</g>
</svg>
