<?xml version="1.0" encoding="UTF-8"?>
<svg width="24px" height="24px" viewBox="0 0 24 24" version="1.1" xmlns="http://www.w3.org/2000/svg" xmlns:xlink="http://www.w3.org/1999/xlink">
    <!-- Generator: sketchtool 60 (101010) - https://sketch.com -->
    <title>D01BC489-250B-4255-BA0E-B4DEC7A6D24D</title>
    <desc>Created with sketchtool.</desc>
    <g id="Page-1" stroke="none" stroke-width="1" fill="none" fill-rule="evenodd">
        <g id="Desktop-x-1680---Signed-Out" transform="translate(-1298.000000, -4146.000000)" fill-rule="nonzero">
            <g id="Footer-Links-Collapsed" transform="translate(0.000000, 3815.000000)">
                <g id="Policy-Links" transform="translate(0.000000, 323.000000)">
                    <g id="Socail-Icons" transform="translate(1210.000000, 8.000000)">
                        <g id="twitter-(1)" transform="translate(88.000000, 0.000000)">
                            <path d="M11.7549368,0 C18.247393,0 23.5099544,5.26030586 23.5099544,11.7483579 C23.5099544,18.2371358 18.247393,23.4966351 11.7549368,23.4966351 C5.2624807,23.4966351 0,18.2370551 0,11.7483579 C0,5.26030586 5.2625614,0 11.7549368,0 Z" id="Path" fill="#0E0F20"></path>
                            <path d="M19.1040421,7.91469593 C18.5905368,8.13641936 18.0379719,8.28547171 17.4583719,8.35306147 C18.0505614,8.00866021 18.5045895,7.4645546 18.7183684,6.8147896 C18.1644316,7.13418749 17.5516632,7.36550899 16.8985439,7.48955797 C16.3761614,6.94988845 15.6319298,6.61282689 14.8076421,6.61282689 C13.226614,6.61282689 11.9438596,7.85597834 11.9438596,9.39054003 C11.9438596,9.60863395 11.9688772,9.82083997 12.0180246,10.0242545 C9.63764561,9.90827111 7.52616491,8.80167033 6.11412632,7.1209599 C5.86725965,7.53141846 5.72619298,8.0079343 5.72619298,8.51751912 C5.72619298,9.48087479 6.23162807,10.3326025 7.00015088,10.8297663 C6.52998246,10.8150869 6.08910877,10.6909573 5.70198246,10.4817355 L5.70198246,10.5169822 C5.70198246,11.8636153 6.68936842,12.9863473 8.00004561,13.2418656 C7.75979649,13.3050193 7.5070386,13.3395401 7.24548421,13.3395401 C7.0610807,13.3395401 6.88184211,13.322683 6.7069614,13.289614 C7.07132982,14.3939564 8.12932982,15.1972099 9.38343509,15.2193096 C8.40266667,15.9652973 7.16760702,16.4088248 5.82537544,16.4088248 C5.59392281,16.4088248 5.36618246,16.3955972 5.14134737,16.3699486 C6.41014035,17.1585226 7.91482456,17.6189073 9.53329825,17.6189073 C14.8024772,17.6189073 17.6839333,13.3836589 17.6839333,9.71227695 L17.6758632,9.35247038 C18.2341579,8.96177256 18.7198211,8.47275502 19.1040421,7.91469593 Z" id="Path" fill="#8a5817"></path>
                        </g>
                    </g>
                </g>
            </g>
        </g>
    </g>
</svg>