<?xml version="1.0" encoding="UTF-8"?>
<svg width="24px" height="24px" viewBox="0 0 24 24" version="1.1" xmlns="http://www.w3.org/2000/svg" xmlns:xlink="http://www.w3.org/1999/xlink">
    <!-- Generator: sketchtool 60 (101010) - https://sketch.com -->
    <title>96C35CF6-01B6-419D-A35D-5C245A49B7FF</title>
    <desc>Created with sketchtool.</desc>
    <g id="Page-1" stroke="none" stroke-width="1" fill="none" fill-rule="evenodd">
        <g id="Desktop-x-1680---Signed-Out" transform="translate(-1342.000000, -4146.000000)" fill-rule="nonzero">
            <g id="Footer-Links-Collapsed" transform="translate(0.000000, 3815.000000)">
                <g id="Policy-Links" transform="translate(0.000000, 323.000000)">
                    <g id="Socail-Icons" transform="translate(1210.000000, 8.000000)">
                        <g id="youtube-(1)" transform="translate(132.000000, 0.000000)">
                            <path d="M11.7549368,0 C18.247393,0 23.5099544,5.26030586 23.5099544,11.7483579 C23.5099544,18.2364099 18.247393,23.4966351 11.7549368,23.4966351 C5.2624807,23.4966351 0,18.2363292 0,11.7483579 C0,5.26038652 5.2625614,0 11.7549368,0 Z" id="Path" fill="#0E0F20"></path>
                            <path d="M11.4713509,9.54620618 C11.8430632,9.54620618 12.1340737,9.42796443 12.3471263,9.25987726 C12.5587263,9.09098352 12.6645263,8.86119448 12.6645263,8.5659934 L12.6645263,6.78462424 C12.6645263,6.52249213 12.5565474,6.30585002 12.3412351,6.13921466 C12.1244702,5.97249864 11.8475018,5.88958423 11.5080702,5.88958423 C11.1370842,5.88958423 10.8402632,5.96814321 10.620593,6.12598707 C10.4001965,6.28455683 10.2899579,6.49603695 10.2899579,6.76405695 L10.2899579,8.55123335 C10.2899579,8.84490196 10.3972105,9.07694937 10.6117158,9.25100509 C10.8262211,9.42506081 11.1136,9.54620618 11.4713509,9.54620618 Z M11.0827719,6.85076219 C11.0827719,6.78317243 11.1180386,6.72889092 11.1878456,6.68557863 C11.2583789,6.64371815 11.3494912,6.62315086 11.4611825,6.62315086 C11.5831228,6.62315086 11.6815789,6.64371815 11.7558246,6.68557863 C11.8307965,6.72889092 11.8675158,6.78325309 11.8675158,6.85076219 L11.8675158,8.5439743 C11.8675158,8.62769527 11.8307965,8.69375256 11.7572772,8.74150093 C11.6838386,8.7885234 11.5853825,8.81272021 11.4611825,8.81272021 C11.3399684,8.81272021 11.2459509,8.78997521 11.1805018,8.74222683 C11.1158596,8.69593027 11.0827719,8.62987298 11.0827719,8.5439743 L11.0827719,6.85076219 L11.0827719,6.85076219 Z M13.9311404,9.54402846 C14.0618772,9.54402846 14.1948737,9.46909901 14.3330351,9.39425021 C14.4726491,9.31786895 14.6055649,9.206241 14.7334772,9.06089882 L14.7334772,9.45667798 L15.4277544,9.45667798 L15.4277544,5.88442225 L14.7334772,5.88442225 L14.7334772,8.5960781 C14.6688351,8.67318527 14.5968491,8.73706485 14.5196982,8.78771684 C14.4410947,8.83764292 14.3764526,8.8633722 14.3257719,8.8633722 C14.2604035,8.8633722 14.2126281,8.84498262 14.1847053,8.80610641 C14.1553298,8.76868201 14.1391895,8.70770605 14.1391895,8.62398509 L14.1391895,5.88514815 L13.4463649,5.88514815 L13.4463649,8.86998599 C13.4463649,9.08291792 13.4882491,9.24229424 13.5683053,9.3480343 C13.6497333,9.45441961 13.7702211,9.54402846 13.9311404,9.54402846 Z M15.9500561,11.0206791 L7.55989825,11.0206791 C6.22573684,11.0206791 5.14497895,12.0596902 5.14497895,13.3395401 L5.14497895,15.3000463 C5.14497895,16.5806222 6.22573684,17.6196332 7.55989825,17.6196332 L15.9499754,17.6196332 C17.2834105,17.6196332 18.3648947,16.5806222 18.3648947,15.3000463 L18.3648947,13.3395401 C18.3648947,12.0596095 17.2834912,11.0206791 15.9500561,11.0206791 Z M8.80811228,13.0105441 L8.06614035,13.0105441 L8.06614035,16.0812806 L7.34837895,16.0812806 L7.34837895,13.0105441 L6.60632632,13.0105441 L6.60632632,12.4870058 L8.80819298,12.4870058 C8.80811228,12.4870058 8.80811228,13.0105441 8.80811228,13.0105441 Z M11.0224877,16.123867 L10.2488807,16.123867 L10.2488807,15.805195 C10.1049088,15.9227109 9.95722456,16.012965 9.80147018,16.073215 C9.64789474,16.1363687 9.49803158,16.1664534 9.35260702,16.1664534 C9.17336842,16.1664534 9.03964561,16.1231411 8.94853333,16.0357906 C8.85887368,15.949892 8.81263158,15.820681 8.81263158,15.6480771 L8.81263158,13.2235567 L9.5862386,13.2235567 L9.5862386,15.4476468 C9.5862386,15.5166884 9.60237895,15.5651627 9.63328772,15.5959733 C9.66710175,15.6275098 9.72068772,15.6414633 9.79275439,15.6414633 C9.8486,15.6414633 9.9220386,15.6216219 10.0087123,15.5804873 C10.0961123,15.5400787 10.1762491,15.4887008 10.2489614,15.4248212 L10.2489614,13.2227502 L11.0225684,13.2227502 C11.0224877,13.2227502 11.0224877,16.123867 11.0224877,16.123867 Z M13.9509123,15.5716958 C13.9509123,15.7618828 13.8906281,15.906499 13.7709474,16.0086096 C13.6526386,16.1106394 13.4778386,16.1605655 13.2522772,16.1605655 C13.1016877,16.1605655 12.9679649,16.1414501 12.8518351,16.1025738 C12.7350596,16.0636976 12.6248211,16.0034476 12.5249123,15.9204525 L12.5249123,16.1260447 L11.7527579,16.1260447 L11.7527579,12.4870058 L12.5249123,12.4870058 L12.5249123,13.6596639 C12.6292596,13.5789272 12.7386912,13.5157735 12.8525614,13.4731871 C12.9693368,13.4298749 13.0869193,13.4093076 13.2052281,13.4093076 C13.4469298,13.4093076 13.6313333,13.4658474 13.7584386,13.5796531 C13.8869965,13.6941847 13.9509123,13.8623525 13.9509123,14.0818982 C13.9509123,14.0818176 13.9509123,15.5716958 13.9509123,15.5716958 Z M16.8941053,14.7529564 L15.4688316,14.7529564 L15.4688316,15.2772206 C15.4688316,15.4233694 15.4923158,15.5246734 15.5415439,15.5819391 C15.5914982,15.638479 15.675993,15.666386 15.7943018,15.666386 C15.9192281,15.666386 16.0044491,15.6421892 16.0544035,15.5944408 C16.1029053,15.5459666 16.1293754,15.4409524 16.1293754,15.2764947 L16.1293754,15.1501874 L16.8956386,15.1501874 L16.8956386,15.292626 C16.8956386,15.5775031 16.8038,15.7919675 16.6142316,15.9365837 C16.4276491,16.0804741 16.1484211,16.1524193 15.7774351,16.1524193 C15.4431684,16.1524193 15.1801614,16.076038 14.988414,15.9233561 C14.797393,15.7721261 14.7003895,15.560646 14.7003895,15.2933519 L14.7003895,14.0435866 C14.7003895,13.8034736 14.8061895,13.6052211 15.0177895,13.4532651 C15.2286632,13.302035 15.499014,13.2263797 15.8332807,13.2263797 C16.1741649,13.2263797 16.4364456,13.2968731 16.6201228,13.4371339 C16.8030737,13.5773947 16.894186,13.7800027 16.894186,14.0429414 C16.8941053,14.0429414 16.8941053,14.7529564 16.8941053,14.7529564 Z M8.39233684,9.55435244 L9.2688386,9.55435244 L9.2688386,7.41979051 L10.2893123,4.40930405 L9.39812281,4.40930405 L8.85588772,6.46675881 L8.80004211,6.46675881 L8.23141754,4.40930405 L7.34757193,4.40930405 L8.39225614,7.51601315 C8.39233684,7.51601315 8.39233684,9.55435244 8.39233684,9.55435244 Z M12.8444912,13.8350908 L12.6821193,13.8615459 L12.524186,13.9430892 L12.524186,15.615734 C12.5859228,15.6590463 12.6468526,15.6921153 12.7056842,15.7104242 L12.8900877,15.7390571 C12.9841053,15.7390571 13.0524596,15.7206675 13.0965228,15.6817913 C13.1398596,15.6443669 13.1626175,15.582665 13.1626175,15.4982182 L13.1626175,14.1111764 C13.1626175,14.0193898 13.1368737,13.9510741 13.0825614,13.9048582 C13.0267158,13.8586423 12.9481123,13.8350908 12.8444912,13.8350908 Z" id="Shape" fill="#8a5817"></path>
                            <path d="M15.8354596,13.7132195 C15.7164246,13.7132195 15.6319298,13.7382229 15.5797965,13.7896008 C15.5283895,13.8388009 15.5033719,13.9225219 15.5033719,14.0392312 L15.5033719,14.3197529 L16.1623825,14.3197529 L16.1623825,14.0392312 C16.1623825,13.9225219 16.135186,13.8395268 16.0837789,13.7896008 C16.0330175,13.7382229 15.9486035,13.7132195 15.8354596,13.7132195 Z" id="Path" fill="#FFFFFF"></path>
                        </g>
                    </g>
                </g>
            </g>
        </g>
    </g>
</svg>